# Blender v2.91.2 OBJ File: 'weirdchamp.blend'
# www.blender.org
mtllib weirdchamp.mtl
o Weird_Mesh
v 1.000000 0.006909 1.553593
v 1.000000 2.006909 3.553594
v 1.000000 0.006909 3.553594
v -1.000000 2.006909 3.553594
v 1.000000 2.006909 1.553593
v -0.313481 3.916914 2.867074
v -0.313481 3.916914 2.240112
v 0.313480 3.916914 2.867074
v -0.151718 4.583233 2.401875
v 0.313480 4.583233 2.240112
v 0.313480 4.583233 2.867074
v 0.151718 4.979012 2.401875
v 0.151718 4.979012 2.705311
v 1.000000 0.006909 -1.559217
v 1.000000 2.006909 -3.559217
v 1.000000 2.006909 -1.559217
v -1.000000 2.006909 -3.559217
v -1.000000 2.006909 -1.559217
v -1.000000 0.006909 -3.559217
v -0.313481 3.916914 -2.872698
v 0.313480 3.916914 -2.872698
v -0.151718 4.583233 -2.710935
v 0.151718 4.583233 -2.407500
v -0.313481 4.583233 -2.245737
v -0.313481 4.583233 -2.872698
v 0.313480 4.583233 -2.872698
v 0.313480 4.583233 -2.245737
v -0.151718 4.979012 -2.710935
v 0.151718 4.979012 -2.710935
v 0.151718 4.979012 -2.407500
v 0.313480 5.307127 1.059874
v 0.313480 3.990594 -1.047929
v -0.454130 3.577411 -0.829600
v -0.454130 4.621208 0.841545
v -0.313481 3.990594 -1.047929
v -0.313481 3.324274 -1.047929
v -0.313481 4.640807 1.059874
v -0.313481 3.935684 -0.948891
v -0.313481 5.128499 0.960836
v -0.313481 3.502902 -0.948891
v -0.313481 4.695717 0.960836
v -3.153636 3.935684 -0.948891
v -3.153636 5.128499 0.960836
v -3.153636 3.502902 -0.948891
v -3.153636 4.695717 0.960836
v -3.012987 3.577411 -0.829600
v -3.012987 4.621208 0.841545
v -0.454130 4.010193 -0.829600
v -0.454130 5.053989 0.841545
v -3.012987 4.010193 -0.829600
v -3.012987 5.053989 0.841545
v -0.454130 3.927989 -0.778255
v -0.454130 4.971786 0.892889
v -0.454130 3.659616 -0.880944
v -0.454130 4.703412 0.790200
v -3.012987 3.927989 -0.778255
v -3.012987 4.971786 0.892889
v -3.012987 3.659616 -0.880944
v -3.012987 4.703412 0.790200
v -3.153636 3.992847 -0.633415
v -3.153636 3.867593 -0.559474
v -3.153636 4.553993 0.536093
v -3.153636 4.720257 0.525167
v -3.870812 3.992847 -0.633415
v -3.870812 3.867593 -0.559474
v -3.870812 4.553993 0.536093
v -3.870812 4.720257 0.525167
v -1.000000 0.006909 3.553594
v -1.000000 0.006909 1.553593
v -1.000000 2.006909 1.553593
v 0.313480 3.916914 2.240112
v 0.151718 4.583233 2.705311
v 0.151718 4.583233 2.401875
v -0.151718 4.583233 2.705311
v -0.313481 4.583233 2.240112
v -0.313481 4.583233 2.867074
v -0.151718 4.979012 2.401875
v -0.151718 4.979012 2.705311
v -1.000000 0.006909 -1.559217
v 1.000000 0.006909 -3.559217
v 0.313480 3.916914 -2.245737
v -0.313481 3.916914 -2.245737
v 0.151718 4.583233 -2.710935
v -0.151718 4.583233 -2.407500
v -0.151718 4.979012 -2.407500
v -0.313481 5.307127 1.059874
v 0.313480 4.640807 1.059874
v 0.454129 4.010193 -0.829600
v 0.454129 5.053989 0.841545
v 0.313480 3.324274 -1.047929
v 3.012986 4.010193 -0.829600
v 0.313480 3.935684 -0.948891
v 0.313480 5.128499 0.960836
v 0.313480 3.502902 -0.948891
v 0.313480 4.695717 0.960836
v 3.153635 3.935684 -0.948891
v 3.153635 5.128499 0.960836
v 3.153635 3.502902 -0.948891
v 3.153635 4.695717 0.960836
v 0.454129 3.577411 -0.829600
v 0.454129 4.621208 0.841545
v 3.012986 3.577411 -0.829600
v 3.012986 5.053989 0.841545
v 3.012986 4.621208 0.841545
v 0.454129 3.927989 -0.778255
v 0.454129 4.971786 0.892889
v 0.454129 3.659616 -0.880944
v 0.454129 4.703412 0.790200
v 3.012986 3.927989 -0.778255
v 3.012986 4.971786 0.892889
v 3.012986 3.659616 -0.880944
v 3.012986 4.703412 0.790200
v 3.153635 3.992847 -0.633415
v 3.153635 3.867593 -0.559474
v 3.153635 4.553993 0.536093
v 3.153635 4.720257 0.525167
v 3.870812 3.992847 -0.633415
v 3.870812 3.867593 -0.559474
v 3.870812 4.553993 0.536093
v 3.870812 4.720257 0.525167
vn 0.0000 0.0000 -1.0000
vn -1.0000 0.0000 0.0000
vn 1.0000 0.0000 0.0000
vn 0.0000 -1.0000 0.0000
vn 0.0000 0.0000 1.0000
vn 0.0000 0.8524 0.5228
vn 0.9411 0.3382 0.0000
vn 0.0000 0.3382 -0.9411
vn 0.0000 1.0000 0.0000
vn 0.0000 0.3382 0.9411
vn -0.9411 0.3382 0.0000
vn 0.0000 -0.8524 -0.5228
vn 0.0000 -0.8482 0.5298
vn 0.0000 0.8482 -0.5298
vn 0.0000 0.8963 0.4435
vn 0.0000 -0.8963 -0.4435
vn 0.0000 0.8481 -0.5298
vn 0.0000 -0.5298 -0.8482
vn 0.0000 0.5298 0.8482
vn 0.0000 -0.5298 -0.8481
vn 0.0000 0.5298 0.8481
vn 0.0000 0.8469 -0.5317
vn 0.0000 -0.8474 0.5309
vn 0.0000 0.0656 0.9978
vn 0.0000 -0.5084 -0.8611
vn 0.0000 -0.8482 0.5297
vn 0.0000 -0.8481 0.5298
vn 0.0000 0.8482 -0.5297
vt 0.142846 0.698029
vt 0.285691 0.834252
vt 0.142846 0.834252
vt 0.142771 0.000000
vt 0.000000 0.142846
vt 0.000000 0.000000
vt 0.522716 0.365171
vt 0.379946 0.508017
vt 0.379946 0.365171
vt 0.269116 0.977098
vt 0.142846 0.834252
vt 0.269116 0.834252
vt 0.142846 0.647950
vt 0.000000 0.508017
vt 0.142846 0.508017
vt 0.885747 0.950699
vt 0.930527 0.883115
vt 0.930527 0.950699
vt 0.660650 0.458984
vt 0.522716 0.508017
vt 0.236658 0.582691
vt 0.285691 0.698029
vt 0.935535 0.387674
vt 0.913863 0.415365
vt 0.913863 0.387674
vt 0.280705 0.049033
vt 0.328270 0.093812
vt 0.280705 0.093812
vt 0.093812 0.791438
vt 0.049033 0.838058
vt 0.049033 0.791438
vt 0.660650 0.414205
vt 0.708216 0.458984
vt 0.770870 0.493562
vt 0.802444 0.505116
vt 0.759892 0.505116
vt 0.770870 0.471890
vt 0.802444 0.460336
vt 0.791465 0.471890
vt 0.791465 0.493562
vt 0.759892 0.460336
vt 0.732488 0.935393
vt 0.711894 0.913721
vt 0.732488 0.913721
vt 0.845788 0.460336
vt 0.824116 0.488589
vt 0.824116 0.460336
vt 0.659506 0.913721
vt 0.637834 0.940678
vt 0.637834 0.913721
vt 0.892191 0.415926
vt 0.892191 0.387673
vt 0.428537 0.644240
vt 0.285691 0.508017
vt 0.428537 0.508017
vt 0.142771 0.365171
vt 0.000000 0.508017
vt 0.000000 0.365171
vt 0.522716 0.000000
vt 0.379946 0.142846
vt 0.379946 0.000000
vt 0.571383 0.647950
vt 0.428537 0.508017
vt 0.571383 0.508017
vt 0.126270 0.980903
vt 0.000000 0.838058
vt 0.126270 0.838058
vt 0.477570 0.791438
vt 0.428537 0.647950
vt 0.379504 0.759578
vt 0.334724 0.804962
vt 0.334724 0.759578
vt 0.660650 0.093812
vt 0.522716 0.142846
vt 0.285691 0.644240
vt 0.280705 0.458984
vt 0.142771 0.508017
vt 0.637834 0.913721
vt 0.616162 0.941412
vt 0.616162 0.913721
vt 0.280705 0.414205
vt 0.328270 0.458984
vt 0.712326 0.329909
vt 0.708216 0.414205
vt 0.660650 0.049033
vt 0.708216 0.093812
vt 0.925417 0.518996
vt 0.936970 0.550569
vt 0.925417 0.539590
vt 0.903744 0.539590
vt 0.892191 0.508017
vt 0.903744 0.518996
vt 0.936970 0.508017
vt 0.892191 0.550569
vt 0.711893 0.935393
vt 0.691299 0.913721
vt 0.711893 0.913721
vt 0.824116 0.460336
vt 0.802443 0.488589
vt 0.802443 0.460336
vt 0.681179 0.913721
vt 0.659506 0.940678
vt 0.659506 0.913721
vt 0.872805 0.463493
vt 0.851133 0.491746
vt 0.851133 0.463493
vt 0.332380 0.178108
vt 0.379946 0.178108
vt 0.236658 0.508017
vt 0.191879 0.582691
vt 0.191879 0.508017
vt 0.945035 0.000000
vt 0.900256 0.177041
vt 0.900256 0.000000
vt 0.936970 0.618681
vt 0.892191 0.791025
vt 0.892191 0.618681
vt 0.665910 0.179363
vt 0.618345 0.179363
vt 0.285964 0.328654
vt 0.328270 0.414205
vt 0.571383 0.979833
vt 0.616162 0.913721
vt 0.616162 0.979833
vt 0.900256 0.379893
vt 0.930536 0.177041
vt 0.930536 0.379893
vt 0.367194 0.185182
vt 0.282045 0.321580
vt 0.251150 0.321580
vt 0.336300 0.185182
vt 0.238399 0.328654
vt 0.978781 0.218869
vt 0.960817 0.193401
vt 0.987024 0.177041
vt 0.966448 0.508017
vt 0.936970 0.710869
vt 0.936970 0.508017
vt 0.581136 0.720914
vt 0.727531 0.710869
vt 0.717777 0.720914
vt 0.721767 0.700823
vt 0.571383 0.710869
vt 0.581402 0.700823
vt 0.581136 0.903675
vt 0.727531 0.913721
vt 0.571383 0.913721
vt 0.581402 0.518063
vt 0.731787 0.508017
vt 0.721767 0.518063
vt 0.571383 0.710869
vt 0.571383 0.508017
vt 0.717777 0.903675
vt 0.731787 0.710869
vt 0.967736 0.354199
vt 0.974656 0.494902
vt 0.967736 0.494905
vt 0.966448 0.685172
vt 0.973151 0.867933
vt 0.966448 0.867933
vt 0.422332 0.804962
vt 0.285691 0.987723
vt 0.285691 0.804962
vt 0.759892 0.182761
vt 0.900256 0.000000
vt 0.900256 0.182761
vt 0.958875 0.140706
vt 0.965795 0.000003
vt 0.965795 0.140710
vt 0.993512 0.359802
vt 0.987024 0.177041
vt 0.993512 0.177041
vt 0.979853 0.867933
vt 0.973150 0.685172
vt 0.979853 0.685172
vt 0.890193 0.506228
vt 0.883273 0.365525
vt 0.890193 0.365522
vt 0.965795 0.140707
vt 0.972715 0.000003
vt 0.972715 0.140710
vt 0.992655 0.502411
vt 0.999143 0.685172
vt 0.992655 0.685172
vt 0.872805 0.371169
vt 0.883273 0.463214
vt 0.872893 0.463493
vt 0.968172 0.316816
vt 0.987024 0.337836
vt 0.960817 0.354196
vt 0.811114 0.365522
vt 0.862337 0.460336
vt 0.811114 0.460336
vt 0.936970 0.883115
vt 0.885747 0.791025
vt 0.936970 0.791025
vt 0.126270 0.940504
vt 0.138060 0.889281
vt 0.138060 0.940504
vt 0.691299 0.913721
vt 0.681179 0.964944
vt 0.681179 0.913721
vt 0.000000 0.647950
vt 0.142771 0.142846
vt 0.960816 0.379893
vt 0.930536 0.177041
vt 0.960816 0.177041
vt 0.747140 0.322835
vt 0.661990 0.186437
vt 0.631096 0.186437
vt 0.716246 0.322835
vt 0.992655 0.524377
vt 0.985172 0.555468
vt 0.974691 0.549845
vt 0.936970 0.710869
vt 0.966448 0.913721
vt 0.936970 0.913721
vt 0.883679 0.913721
vt 0.737285 0.903675
vt 0.873925 0.903675
vt 0.741807 0.518063
vt 0.892191 0.508017
vt 0.882171 0.518063
vt 0.727531 0.710869
vt 0.873925 0.720915
vt 0.737285 0.720915
vt 0.892191 0.710869
vt 0.741807 0.700823
vt 0.882171 0.700823
vt 0.727531 0.913721
vt 0.731787 0.710869
vt 0.883679 0.710869
vt 0.276035 0.834255
vt 0.269115 0.974959
vt 0.269115 0.834252
vt 0.986556 0.685172
vt 0.979853 0.867933
vt 0.979853 0.685172
vt 0.428537 0.791438
vt 0.565177 0.974198
vt 0.428537 0.974198
vt 0.900256 0.365522
vt 0.759892 0.182761
vt 0.900256 0.182761
vt 0.967736 0.354196
vt 0.960817 0.494905
vt 0.960817 0.354199
vt 0.993512 0.359802
vt 1.000000 0.177041
vt 1.000000 0.359802
vt 0.986556 0.867933
vt 0.993258 0.685172
vt 0.993258 0.867933
vt 0.951955 0.140706
vt 0.958875 0.000003
vt 0.958875 0.140710
vt 0.945035 0.000003
vt 0.951955 0.140706
vt 0.945035 0.140710
vt 0.999747 0.685172
vt 0.993258 0.867933
vt 0.993258 0.685172
vt 0.872805 0.365801
vt 0.862337 0.457846
vt 0.862424 0.365522
vt 0.966448 0.668812
vt 0.974918 0.647537
vt 0.985300 0.647792
vt 0.759892 0.460336
vt 0.811114 0.365522
vt 0.811114 0.460336
vt 0.943414 0.415926
vt 0.892191 0.508017
vt 0.892191 0.415926
vt 0.138060 0.889281
vt 0.126270 0.838058
vt 0.138060 0.838058
vt 0.943414 0.415926
vt 0.953534 0.467149
vt 0.943414 0.467149
vt 0.142846 0.977098
vt 0.885747 0.883115
vt 0.935535 0.415365
vt 0.328270 0.049033
vt 0.093812 0.838058
vt 0.711894 0.935393
vt 0.845788 0.488589
vt 0.659506 0.940678
vt 0.913863 0.415926
vt 0.000000 0.980903
vt 0.522349 0.791438
vt 0.379504 0.804962
vt 0.637834 0.941412
vt 0.759891 0.329909
vt 0.708216 0.049033
vt 0.691299 0.935393
vt 0.824116 0.488589
vt 0.681179 0.940678
vt 0.872805 0.491746
vt 0.945035 0.177041
vt 0.936970 0.791025
vt 0.571383 0.913721
vt 0.900256 0.177041
vt 0.978553 0.316561
vt 0.968299 0.224492
vt 0.966448 0.710869
vt 0.974656 0.354196
vt 0.973151 0.685172
vt 0.422332 0.987723
vt 0.759892 0.000000
vt 0.958875 0.000000
vt 0.987024 0.359802
vt 0.973150 0.867933
vt 0.883273 0.506231
vt 0.965795 0.000000
vt 0.999143 0.502411
vt 0.883273 0.365522
vt 0.862337 0.365522
vt 0.885747 0.883115
vt 0.126270 0.889281
vt 0.691299 0.964944
vt 0.930536 0.379893
vt 0.966448 0.508017
vt 0.966448 0.710869
vt 0.731787 0.508017
vt 0.276035 0.974962
vt 0.986556 0.867933
vt 0.565177 0.791438
vt 0.759892 0.365522
vt 0.967736 0.494902
vt 0.993512 0.177041
vt 0.986556 0.685172
vt 0.951955 0.000000
vt 0.951955 0.000000
vt 0.999747 0.867933
vt 0.872805 0.463493
vt 0.992655 0.685172
vt 0.759892 0.365522
vt 0.943414 0.508017
vt 0.126270 0.889281
vt 0.953534 0.415926
usemtl Material
s off
f 70/1/1 1/2/1 69/3/1
f 4/4/2 69/5/2 68/6/2
f 5/7/3 3/8/3 1/9/3
f 1/10/4 68/11/4 69/12/4
f 2/13/5 68/14/5 3/15/5
f 86/16/6 10/17/6 31/18/6
f 5/7/7 8/19/7 2/20/7
f 70/1/8 71/21/8 5/22/8
f 72/23/5 78/24/5 74/25/5
f 6/26/2 75/27/2 7/28/2
f 8/29/5 76/30/5 6/31/5
f 71/32/3 11/33/3 8/19/3
f 74/34/9 75/35/9 76/36/9
f 72/37/9 10/38/9 73/39/9
f 73/39/9 75/35/9 9/40/9
f 74/34/9 11/41/9 72/37/9
f 77/42/9 13/43/9 12/44/9
f 73/45/3 13/46/3 72/47/3
f 9/48/1 12/49/1 73/50/1
f 74/25/2 77/51/2 9/52/2
f 17/53/1 80/54/1 19/55/1
f 18/56/2 19/57/2 79/58/2
f 15/59/3 14/60/3 80/61/3
f 16/62/5 79/63/5 14/64/5
f 80/65/4 79/66/4 19/67/4
f 16/62/10 82/68/10 18/69/10
f 20/70/1 26/71/1 21/72/1
f 15/59/7 81/73/7 16/74/7
f 17/53/8 21/72/8 15/75/8
f 18/56/11 20/76/11 17/77/11
f 23/78/5 85/79/5 84/80/5
f 82/81/2 25/82/2 20/76/2
f 87/83/3 10/84/3 71/32/3
f 21/85/3 27/86/3 81/73/3
f 22/87/9 24/88/9 84/89/9
f 23/90/9 26/91/9 83/92/9
f 83/92/9 25/93/9 22/87/9
f 84/89/9 27/94/9 23/90/9
f 28/95/9 30/96/9 29/97/9
f 83/98/3 30/99/3 23/100/3
f 22/101/1 29/102/1 83/103/1
f 84/104/2 28/105/2 22/106/2
f 37/107/2 75/27/2 86/108/2
f 87/109/12 7/110/12 37/111/12
f 90/112/13 37/113/13 36/114/13
f 35/115/14 31/116/14 32/117/14
f 24/88/15 32/117/15 27/94/15
f 81/73/3 32/118/3 90/119/3
f 82/81/2 35/120/2 24/121/2
f 81/122/16 36/123/16 82/124/16
f 39/125/5 45/126/5 41/127/5
f 39/128/2 35/120/2 38/129/2
f 40/130/2 37/107/2 41/131/2
f 39/128/2 37/107/2 86/108/2
f 40/130/2 35/120/2 36/132/2
f 63/133/2 45/134/2 43/135/2
f 40/136/1 42/137/1 38/138/1
f 49/139/14 38/140/14 48/141/14
f 33/142/13 41/143/13 34/144/13
f 51/145/14 42/146/14 43/147/14
f 47/148/13 44/149/13 46/150/13
f 51/145/17 39/151/17 49/139/17
f 34/144/13 45/152/13 47/148/13
f 48/141/14 42/146/14 50/153/14
f 46/150/13 40/154/13 33/142/13
f 51/155/3 56/156/3 50/157/3
f 49/158/18 57/159/18 51/160/18
f 52/161/14 57/162/14 53/163/14
f 55/164/13 58/165/13 54/166/13
f 49/167/2 52/168/2 53/169/2
f 33/170/19 58/171/19 46/172/19
f 47/173/20 55/174/20 34/175/20
f 46/176/3 59/177/3 47/178/3
f 33/179/2 55/180/2 54/181/2
f 50/182/21 52/183/21 48/184/21
f 66/185/2 64/186/2 65/187/2
f 61/188/2 42/189/2 44/190/2
f 60/191/22 67/192/22 63/193/22
f 62/194/23 65/195/23 61/196/23
f 63/197/24 66/198/24 62/199/24
f 61/200/25 64/201/25 60/202/25
f 8/29/10 4/203/10 2/13/10
f 6/26/11 70/204/11 4/4/11
f 99/205/5 93/206/5 95/207/5
f 32/118/3 93/208/3 92/209/3
f 87/83/3 94/210/3 95/211/3
f 93/208/3 87/83/3 95/211/3
f 94/210/3 32/118/3 92/209/3
f 99/212/3 115/213/3 116/214/3
f 96/215/1 94/216/1 92/217/1
f 92/218/14 89/219/14 88/220/14
f 101/221/13 94/222/13 100/223/13
f 97/224/14 91/225/14 103/226/14
f 98/227/13 104/228/13 102/229/13
f 93/230/14 103/226/14 89/219/14
f 99/231/26 101/221/26 104/228/26
f 96/232/14 88/220/14 91/225/14
f 94/222/13 102/229/13 100/223/13
f 109/233/2 103/234/2 91/235/2
f 110/236/18 89/237/18 103/238/18
f 110/239/14 105/240/14 106/241/14
f 111/242/13 108/243/13 107/244/13
f 106/245/3 88/246/3 89/247/3
f 111/248/19 100/249/19 102/250/19
f 108/251/20 104/252/20 101/253/20
f 112/254/2 102/255/2 104/256/2
f 100/257/3 108/258/3 101/259/3
f 105/260/21 91/261/21 88/262/21
f 117/263/3 119/264/3 118/265/3
f 96/266/3 113/267/3 114/268/3
f 120/269/22 113/270/22 116/271/22
f 118/272/23 115/273/23 114/274/23
f 119/275/24 116/276/24 115/277/24
f 117/278/25 114/279/25 113/280/25
f 70/1/1 5/22/1 1/2/1
f 4/4/2 70/204/2 69/5/2
f 5/7/3 2/20/3 3/8/3
f 1/10/4 3/281/4 68/11/4
f 2/13/5 4/203/5 68/14/5
f 86/16/6 75/282/6 10/17/6
f 5/7/7 71/32/7 8/19/7
f 70/1/8 7/110/8 71/21/8
f 72/23/5 13/283/5 78/24/5
f 6/26/2 76/284/2 75/27/2
f 8/29/5 11/285/5 76/30/5
f 71/32/3 10/84/3 11/33/3
f 74/34/9 9/40/9 75/35/9
f 72/37/9 11/41/9 10/38/9
f 73/39/9 10/38/9 75/35/9
f 74/34/9 76/36/9 11/41/9
f 77/42/9 78/286/9 13/43/9
f 73/45/3 12/287/3 13/46/3
f 9/48/1 77/288/1 12/49/1
f 74/25/2 78/289/2 77/51/2
f 17/53/1 15/75/1 80/54/1
f 18/56/2 17/77/2 19/57/2
f 15/59/3 16/74/3 14/60/3
f 16/62/5 18/69/5 79/63/5
f 80/65/4 14/290/4 79/66/4
f 16/62/10 81/291/10 82/68/10
f 20/70/1 25/292/1 26/71/1
f 15/59/7 21/85/7 81/73/7
f 17/53/8 20/70/8 21/72/8
f 18/56/11 82/81/11 20/76/11
f 23/78/5 30/293/5 85/79/5
f 82/81/2 24/121/2 25/82/2
f 87/83/3 31/294/3 10/84/3
f 21/85/3 26/295/3 27/86/3
f 22/87/9 25/93/9 24/88/9
f 23/90/9 27/94/9 26/91/9
f 83/92/9 26/91/9 25/93/9
f 84/89/9 24/88/9 27/94/9
f 28/95/9 85/296/9 30/96/9
f 83/98/3 29/297/3 30/99/3
f 22/101/1 28/298/1 29/102/1
f 84/104/2 85/299/2 28/105/2
f 37/107/2 7/28/2 75/27/2
f 87/109/12 71/21/12 7/110/12
f 90/112/13 87/300/13 37/113/13
f 35/115/14 86/301/14 31/116/14
f 24/88/15 35/115/15 32/117/15
f 81/73/3 27/86/3 32/118/3
f 82/81/2 36/132/2 35/120/2
f 81/122/16 90/302/16 36/123/16
f 39/125/5 43/303/5 45/126/5
f 39/128/2 86/108/2 35/120/2
f 40/130/2 36/132/2 37/107/2
f 39/128/2 41/131/2 37/107/2
f 40/130/2 38/129/2 35/120/2
f 43/135/2 42/189/2 63/133/2
f 42/189/2 60/304/2 63/133/2
f 63/133/2 62/305/2 45/134/2
f 40/136/1 44/306/1 42/137/1
f 49/139/14 39/151/14 38/140/14
f 33/142/13 40/154/13 41/143/13
f 51/145/14 50/153/14 42/146/14
f 47/148/13 45/152/13 44/149/13
f 51/145/14 43/147/14 39/151/14
f 34/144/27 41/143/27 45/152/27
f 48/141/28 38/140/28 42/146/28
f 46/150/27 44/149/27 40/154/27
f 51/155/3 57/307/3 56/156/3
f 49/158/18 53/308/18 57/159/18
f 52/161/14 56/309/14 57/162/14
f 55/164/13 59/310/13 58/165/13
f 49/167/2 48/311/2 52/168/2
f 33/170/19 54/312/19 58/171/19
f 47/173/20 59/313/20 55/174/20
f 46/176/3 58/314/3 59/177/3
f 33/179/2 34/315/2 55/180/2
f 50/182/21 56/316/21 52/183/21
f 66/185/2 67/317/2 64/186/2
f 44/190/2 45/134/2 61/188/2
f 45/134/2 62/305/2 61/188/2
f 61/188/2 60/304/2 42/189/2
f 60/191/22 64/318/22 67/192/22
f 62/194/23 66/319/23 65/195/23
f 63/197/24 67/320/24 66/198/24
f 61/200/25 65/321/25 64/201/25
f 8/29/10 6/31/10 4/203/10
f 6/26/11 7/28/11 70/204/11
f 99/205/5 97/322/5 93/206/5
f 32/118/3 31/294/3 93/208/3
f 87/83/3 90/119/3 94/210/3
f 93/208/3 31/294/3 87/83/3
f 94/210/3 90/119/3 32/118/3
f 113/267/3 96/266/3 116/214/3
f 96/266/3 97/323/3 116/214/3
f 97/323/3 99/212/3 116/214/3
f 96/215/1 98/324/1 94/216/1
f 92/218/14 93/230/14 89/219/14
f 101/221/13 95/325/13 94/222/13
f 97/224/14 96/232/14 91/225/14
f 98/227/13 99/231/13 104/228/13
f 93/230/14 97/224/14 103/226/14
f 99/231/13 95/325/13 101/221/13
f 96/232/14 92/218/14 88/220/14
f 94/222/13 98/227/13 102/229/13
f 109/233/2 110/326/2 103/234/2
f 110/236/18 106/327/18 89/237/18
f 110/239/14 109/328/14 105/240/14
f 111/242/13 112/329/13 108/243/13
f 106/245/3 105/330/3 88/246/3
f 111/248/19 107/331/19 100/249/19
f 108/251/20 112/332/20 104/252/20
f 112/254/2 111/333/2 102/255/2
f 100/257/3 107/334/3 108/258/3
f 105/260/21 109/335/21 91/261/21
f 117/263/3 120/336/3 119/264/3
f 115/213/3 99/212/3 114/268/3
f 99/212/3 98/337/3 114/268/3
f 98/337/3 96/266/3 114/268/3
f 120/269/22 117/338/22 113/270/22
f 118/272/23 119/339/23 115/273/23
f 119/275/24 120/340/24 116/276/24
f 117/278/25 118/341/25 114/279/25